<svg width="88" height="80" viewBox="0 0 88 80" fill="none" xmlns="http://www.w3.org/2000/svg">
<path d="M24.4479 25.4562C24.056 29.2562 23.781 35.9812 26.2491 38.8437C26.2491 38.8437 25.0872 31.4562 35.5029 22.1875C39.6966 18.4562 40.666 13.3812 39.2016 9.575C38.3697 7.41875 36.8504 5.6375 35.5304 4.39375C34.7604 3.6625 35.3516 2.45625 36.4722 2.5C43.251 2.775 54.2372 4.4875 58.9054 15.1375C60.9541 19.8125 61.1054 24.6437 60.1291 29.5562C59.5104 32.6937 57.3104 39.6687 62.3291 40.525C65.911 41.1375 67.6435 38.55 68.4204 36.6875C68.7435 35.9125 69.8641 35.7187 70.4691 36.3375C76.5191 42.5937 77.0347 49.9625 75.7835 56.3062C73.3635 68.5687 59.7029 77.4937 46.1316 77.4937C29.1779 77.4937 15.6823 68.675 12.1829 52.7125C10.7735 46.2687 11.4885 33.5187 22.4198 24.5187C23.231 23.8437 24.5579 24.4437 24.4479 25.4562Z" fill="url(#paint0_radial_125_1107)"/>
<path d="M52.3251 48.3875C46.0758 41.075 48.8739 32.7313 50.407 29.4063C50.6133 28.9688 50.0633 28.5563 49.6301 28.825C46.942 30.4875 41.4351 34.4 38.8707 39.9063C35.3989 47.35 35.6464 50.9938 37.702 55.4438C38.9395 58.125 37.5026 58.6938 36.7807 58.7938C36.0795 58.8938 35.4332 58.4688 34.9176 58.025C33.4343 56.7304 32.3772 55.0855 31.8651 53.275C31.7551 52.8875 31.1982 52.7813 30.9439 53.1C29.0189 55.5188 28.022 59.4 27.9739 62.1438C27.8226 70.625 35.5295 77.5 44.852 77.5C56.6014 77.5 65.1608 65.6875 58.4095 55.8125C56.4501 52.9375 54.6076 51.0563 52.3251 48.3875Z" fill="url(#paint1_radial_125_1107)"/>
<defs>
<radialGradient id="paint0_radial_125_1107" cx="0" cy="0" r="1" gradientUnits="userSpaceOnUse" gradientTransform="translate(42.7737 77.6881) rotate(-179.774) scale(48.5289 72.3878)">
<stop offset="0.314" stop-color="#FF9800"/>
<stop offset="0.662" stop-color="#FF6D00"/>
<stop offset="0.972" stop-color="#F44336"/>
</radialGradient>
<radialGradient id="paint1_radial_125_1107" cx="0" cy="0" r="1" gradientUnits="userSpaceOnUse" gradientTransform="translate(45.4982 33.7865) rotate(90.6366) scale(46.1607 38.2126)">
<stop offset="0.214" stop-color="#FFF176"/>
<stop offset="0.328" stop-color="#FFF27D"/>
<stop offset="0.487" stop-color="#FFF48F"/>
<stop offset="0.672" stop-color="#FFF7AD"/>
<stop offset="0.793" stop-color="#FFF9C4"/>
<stop offset="0.822" stop-color="#FFF8BD" stop-opacity="0.804"/>
<stop offset="0.863" stop-color="#FFF6AB" stop-opacity="0.529"/>
<stop offset="0.91" stop-color="#FFF38D" stop-opacity="0.209"/>
<stop offset="0.941" stop-color="#FFF176" stop-opacity="0"/>
</radialGradient>
</defs>
</svg>
